PathFileType  4	(X/Y/Z) C:\Users\antoi\Documents\MyRepositories\mobilecap\ResultsAnalysis
DataRate	CameraRate	NumFrames	NumMarkers	Units	OrigDataRate	OrigDataStartFrame	OrigNumFrames
100.0	100.0	6	51	mm	100.0	166	1321
Frame#	Time	r_knee			r_shank_antsup			r_ankle			r_calc			r_5meta			r_toe			L_knee			L_shank_antsup			L_ankle			L_calc			L_5meta			L_toe			r_sh2			r_sh3			r_sh4			L_sh2			L_sh3			r_thigh1			r_thigh2			r_thigh3			r_thigh4			r_thigh5			L_thigh1			L_thigh2			L_thigh3			L_thigh4			r.ASIS			r.PSIS			L.ASIS			L.PSIS			C7			R_Shoulder			L_Shoulder			R_Sternum			L_Sternum			R_humerus			R_elbow_med			R_elbow_lat			R_forearm			R_wrist_radius			R_wrist_ulna			L_humerus			L_elbow_med			L_elbow_lat			L_forearm			L_wrist_radius			L_wrist_ulna			R_HJC			L_HJC			R_HJC_reg			L_HJC_reg			
		X1	Y1	Z1	X2	Y2	Z2	X3	Y3	Z3	X4	Y4	Z4	X5	Y5	Z5	X6	Y6	Z6	X7	Y7	Z7	X8	Y8	Z8	X9	Y9	Z9	X10	Y10	Z10	X11	Y11	Z11	X12	Y12	Z12	X13	Y13	Z13	X14	Y14	Z14	X15	Y15	Z15	X16	Y16	Z16	X17	Y17	Z17	X18	Y18	Z18	X19	Y19	Z19	X20	Y20	Z20	X21	Y21	Z21	X22	Y22	Z22	X23	Y23	Z23	X24	Y24	Z24	X25	Y25	Z25	X26	Y26	Z26	X27	Y27	Z27	X28	Y28	Z28	X29	Y29	Z29	X30	Y30	Z30	X31	Y31	Z31	X32	Y32	Z32	X33	Y33	Z33	X34	Y34	Z34	X35	Y35	Z35	X36	Y36	Z36	X37	Y37	Z37	X38	Y38	Z38	X39	Y39	Z39	X40	Y40	Z40	X41	Y41	Z41	X42	Y42	Z42	X43	Y43	Z43	X44	Y44	Z44	X45	Y45	Z45	X46	Y46	Z46	X47	Y47	Z47	X48	Y48	Z48	X49	Y49	Z49	X50	Y50	Z50	X51	Y51	Z51	

166	1.65000000	-135.46485	424.36865	-358.72587	-89.12000	356.72648	-357.84187	-275.34069	85.04421	-381.46991	-332.99522	56.06960	-427.68225	-174.44535	41.41490	-349.32536	-134.48227	60.32483	-400.69511	-127.97074	425.60624	-799.87224	-92.81922	329.56272	-794.10224	-274.01327	91.57039	-787.56888	-335.51117	53.19335	-743.49207	-180.62338	44.36479	-826.62518	-128.91616	60.34547	-775.62971	-144.69064	258.79594	-356.26872	-152.34381	392.65616	-332.60999	-214.28855	294.40705	-333.28813	-161.18386	376.65091	-826.91627	-216.53472	267.09009	-833.61467	-341.89553	566.49216	-354.00060	-237.89441	527.39162	-349.42836	-276.98432	423.36687	-373.98787	-387.22161	465.62798	-367.29256	-243.26791	456.67377	-347.18071	-353.38902	590.47269	-785.04016	-230.55088	529.82710	-790.54453	-411.10091	492.90587	-788.48762	-285.39588	430.13060	-780.52223	-328.58734	602.18353	-462.85348	-480.69661	726.75105	-532.28086	-328.55694	606.04784	-678.79123	-481.92631	725.77230	-611.59742	-111.73882	959.19882	-576.05982	-46.96399	906.34351	-454.42566	-63.08960	914.48987	-704.59595	-25.27330	847.61702	-563.48971	-29.79852	847.95849	-593.70595	16.09450	858.17631	-388.39841	108.33760	676.72529	-316.67109	123.35336	728.27630	-276.23635	205.94169	772.11503	-294.38564	341.87262	789.77633	-333.28552	351.09730	762.82569	-307.43434	-14.94686	868.23443	-781.67039	109.23401	690.26636	-825.86294	114.71161	742.10757	-866.16281	215.63291	778.67053	-846.41285	330.91554	801.92939	-799.25128	342.26102	767.80927	-818.43010	-437.63891	564.66222	-466.65973	-436.68153	569.56489	-674.10700	-419.42586	583.18090	-490.56917	-421.63519	581.42228	-633.08298	
167	1.66000000	-135.74354	424.47967	-358.58305	-89.51703	356.73559	-357.71387	-275.39774	84.97561	-381.48151	-332.96705	56.05711	-427.64392	-174.46234	41.38329	-349.27456	-134.50785	60.37057	-400.62678	-128.05146	425.52533	-799.80429	-92.85074	329.55469	-794.12789	-274.05142	91.53238	-787.52757	-335.56308	53.17511	-743.49607	-180.63907	44.36926	-826.62896	-128.92359	60.34168	-775.61495	-144.91880	258.76477	-356.12775	-152.75387	392.66000	-332.44401	-214.70949	294.18646	-333.48390	-161.21973	376.62666	-826.94467	-216.54862	267.10000	-833.65475	-342.23595	566.59923	-354.19560	-238.35707	527.44223	-349.30783	-277.26400	423.46225	-373.91861	-387.47245	465.76926	-367.38314	-243.61490	456.77541	-347.18470	-353.44174	590.55928	-785.42044	-230.68341	529.85117	-790.61845	-411.15775	492.91001	-788.55365	-285.45090	430.11827	-780.69007	-328.62236	602.26045	-463.08195	-480.82388	726.84196	-532.48984	-328.53716	606.05247	-678.81100	-482.04588	725.81057	-611.88294	-112.82772	959.22511	-576.76988	-47.68760	907.19536	-454.53062	-63.77403	915.23394	-704.81278	-25.83200	848.46129	-563.60690	-30.31374	848.82060	-593.85684	15.35572	858.99345	-388.54219	107.84909	677.33108	-316.93926	122.66712	729.12222	-276.37447	205.25631	772.98759	-294.46338	341.22789	790.58192	-333.28481	350.45076	763.65020	-307.35706	-15.50168	868.93420	-781.86783	108.86473	691.06435	-825.56310	114.30803	742.96907	-866.14917	215.23999	779.50252	-846.47006	330.60050	802.74552	-799.45120	341.95830	768.71826	-818.63008	-437.71193	564.75213	-466.81206	-436.68638	569.56354	-674.26114	-419.42045	583.32796	-490.76020	-421.61173	581.47836	-633.13456	
168	1.67000000	-135.98884	424.45893	-358.55839	-89.85197	356.80740	-357.47714	-275.37648	84.99975	-381.42033	-332.96969	56.02024	-427.60482	-174.45165	41.38627	-349.15584	-134.53227	60.39936	-400.61202	-128.10880	425.45393	-799.77368	-92.87315	329.52938	-794.16044	-274.10155	91.45125	-787.46193	-335.54654	53.16337	-743.50112	-180.65757	44.36016	-826.63660	-128.93139	60.31871	-775.65443	-145.14366	258.78383	-355.97401	-153.21094	392.75343	-332.30085	-215.24336	294.10686	-333.47630	-161.24348	376.60312	-827.02408	-216.57746	267.06982	-833.67993	-342.51094	566.71185	-354.31781	-238.67796	527.50296	-349.27713	-277.57217	423.53157	-373.90793	-387.80810	465.95587	-367.42155	-244.01496	456.92436	-347.04613	-353.46024	590.56609	-785.59482	-230.96001	529.88530	-790.61402	-411.18998	492.91444	-788.62004	-285.49172	430.10977	-780.79913	-328.62637	602.19554	-463.60202	-480.91819	726.96955	-532.71065	-328.48322	606.05091	-678.83350	-482.10168	725.89010	-612.20572	-113.47944	959.60571	-577.28858	-48.45798	908.06696	-454.64672	-64.41095	916.07632	-705.12706	-26.42799	849.38908	-563.72382	-30.83446	849.76114	-594.11714	14.60846	859.86024	-388.64416	107.22050	678.36517	-317.14397	121.94680	729.99732	-276.55015	204.53256	773.96381	-294.51660	340.56358	791.57035	-333.30800	349.77175	764.72398	-307.20424	-16.00614	869.70920	-782.11047	108.53134	691.97867	-825.44009	113.92196	743.93004	-866.21160	214.89029	780.40515	-846.50022	330.29931	803.65526	-799.72459	341.64757	769.65364	-818.89559	-437.78453	564.76826	-467.11666	-436.70876	569.63177	-674.56436	-419.38326	583.52156	-491.23213	-421.49805	581.59277	-633.27883	
169	1.68000000	-136.26481	424.36618	-358.60488	-90.07927	356.90968	-357.14543	-275.35323	85.03653	-381.35067	-333.02450	55.94423	-427.58387	-174.45352	41.40989	-349.04783	-134.55828	60.40656	-400.58850	-128.13378	425.40113	-799.77792	-92.88849	329.49343	-794.16810	-274.13165	91.38344	-787.43605	-335.48841	53.12921	-743.48510	-180.67291	44.34087	-826.65484	-128.94452	60.28610	-775.74401	-145.32509	258.88651	-355.82181	-153.65412	392.82407	-332.20063	-215.48489	293.97201	-333.21349	-161.26655	376.57761	-827.13059	-216.58129	266.97193	-833.63592	-342.87419	566.86841	-354.18629	-238.90055	527.61785	-349.29741	-277.91103	423.58382	-373.88271	-388.18753	466.20417	-367.40321	-244.40730	457.11387	-346.83263	-353.40278	590.55006	-785.69507	-231.10701	529.90525	-790.65910	-411.16617	492.96313	-788.73506	-285.49906	430.19686	-780.99973	-328.63448	602.18914	-464.21439	-481.02850	727.12480	-532.99101	-328.35324	605.99704	-678.70532	-482.12686	725.97936	-612.52980	-113.86915	960.81328	-577.17673	-49.27825	909.04922	-454.79352	-65.08664	917.01198	-705.34315	-27.11843	850.37942	-563.99661	-31.50235	850.71326	-594.28234	13.87023	860.85191	-388.71703	106.31762	679.76838	-317.12317	121.20047	731.02009	-276.68903	203.82693	775.07078	-294.58825	339.87770	792.74650	-333.26125	349.06043	766.00287	-307.02162	-16.52774	870.61628	-782.33920	108.22597	692.97575	-825.54452	113.57049	744.90502	-866.23594	214.52131	781.40563	-846.50925	330.03008	804.70098	-799.98479	341.27988	770.61932	-819.08905	-437.85948	564.83160	-467.39466	-436.68065	569.67358	-674.84221	-419.31092	583.77493	-491.80436	-421.26586	581.73637	-633.36261	
170	1.69000000	-136.61432	424.33920	-358.61564	-90.24902	357.04402	-356.80476	-275.41481	84.99412	-381.33137	-333.08216	55.86706	-427.59483	-174.47949	41.41589	-348.99067	-134.57363	60.40853	-400.55451	-128.13582	425.34474	-799.76535	-92.89564	329.45497	-794.13459	-274.13231	91.35514	-787.45168	-335.46963	53.07173	-743.47692	-180.68205	44.31475	-826.67428	-128.96214	60.25926	-775.81157	-145.47789	258.96546	-355.68869	-153.97688	392.80199	-332.08825	-215.75361	294.04454	-332.92791	-161.29239	376.53284	-827.15944	-216.53537	266.85484	-833.55961	-343.31558	567.09162	-353.98772	-239.15393	527.74902	-349.27030	-278.21951	423.69072	-373.84090	-388.51706	466.46980	-367.44608	-244.75603	457.28424	-346.72684	-353.26981	590.60435	-785.93974	-230.87154	529.91281	-790.84413	-411.09881	493.04647	-788.85072	-285.45333	430.34857	-781.31426	-328.67266	602.44830	-464.57841	-481.13250	727.32131	-533.32912	-328.16475	605.95615	-678.51018	-482.14235	726.12591	-612.85511	-114.66463	961.94171	-577.30634	-50.11703	910.26863	-454.88503	-65.86513	917.99640	-705.39434	-27.81818	851.49309	-564.33679	-32.21186	851.76963	-594.29111	13.10620	862.04631	-388.85177	105.54310	680.96979	-317.37992	120.47323	732.24440	-276.84187	203.10192	776.35594	-294.67149	339.16610	794.12325	-333.11686	348.31779	767.36481	-306.98165	-17.16789	871.64058	-782.48421	107.91823	694.15448	-825.81267	113.23508	745.95563	-866.33845	214.06534	782.53889	-846.51175	329.76027	805.85881	-800.19473	340.86207	771.75021	-819.27557	-437.92627	565.08512	-467.51768	-436.56525	569.69164	-674.96937	-419.23341	584.03211	-492.16552	-421.02641	581.90981	-633.35270	
171	1.70000000	-136.98939	424.41862	-358.52664	-90.44286	357.18862	-356.57048	-275.52493	84.87003	-381.33800	-333.09706	55.81682	-427.60943	-174.50543	41.40407	-348.91972	-134.56755	60.40461	-400.51446	-128.12180	425.29072	-799.72980	-92.89326	329.43497	-794.12324	-274.12860	91.34098	-787.46379	-335.49041	53.01627	-743.50075	-180.68995	44.28292	-826.69365	-128.97958	60.23883	-775.82910	-145.64065	258.97224	-355.57003	-154.17047	392.74659	-331.98428	-216.35959	294.46043	-332.72363	-161.30055	376.45972	-827.04222	-216.48370	266.77338	-833.49474	-343.57906	567.38490	-354.04580	-239.47835	527.86857	-349.20227	-278.47597	423.91427	-373.82553	-388.76856	466.71771	-367.61832	-245.04955	457.44418	-346.73447	-353.11682	590.68083	-786.21986	-230.48138	529.93334	-791.05611	-411.00751	493.13897	-788.94659	-285.37423	430.41640	-781.43337	-328.68865	602.89814	-464.60197	-481.19128	727.59769	-533.66881	-328.08765	606.16123	-678.85712	-482.13013	726.40619	-613.20651	-115.90862	963.07243	-577.74356	-50.96442	911.73645	-454.94706	-66.67801	919.06687	-705.44618	-28.48371	852.79500	-564.56996	-32.92897	853.02673	-594.30015	12.30630	863.44221	-389.02899	104.93103	682.17093	-317.71878	119.75254	733.63143	-277.03896	202.31766	777.80965	-294.75106	338.38472	795.70502	-332.97555	347.53781	768.80568	-307.06624	-17.88914	872.74599	-782.57716	107.57271	695.58868	-826.14966	112.83329	747.21943	-866.55860	213.56416	783.84077	-846.57197	329.44026	807.12353	-800.41947	340.41936	773.07411	-819.52224	-437.92779	565.47484	-467.70149	-436.48560	569.88616	-675.15708	-419.31423	584.19213	-492.32489	-420.98316	582.07416	-633.72449	
